<svg xmlns="http://www.w3.org/2000/svg" fill="#f5f5f5" viewBox="3 6 27 20"><path d="M30 14a3.999 3.999 0 1 0-8 0h2c0-1.105.888-2 2-2 1.105 0 2 .888 2 2 0 1.105-.89 2-2.004 2H3v2h23.002A4.002 4.002 0 0 0 30 14zm-9-4c0-2.209-1.795-4-4-4-2.209 0-4 1.789-4 3.997V10h2c0-1.105.888-2 2-2 1.105 0 2 .888 2 2 0 1.105-.897 2-2.006 2H5v2h12.004A4 4 0 0 0 21 10zm5 13c0 1.657-1.347 3-3 3-1.657 0-3-1.342-3-2.991V23h2c0 .552.444 1 1 1 .552 0 1-.444 1-1 0-.552-.449-1-1.007-1H9v-2h14c1.657 0 3 1.347 3 3z"/></svg>